<?xml version="1.0" standalone="no"?>
<!DOCTYPE svg PUBLIC "-//W3C//DTD SVG 20010904//EN"
 "http://www.w3.org/TR/2001/REC-SVG-20010904/DTD/svg10.dtd">
<svg version="1.0" xmlns="http://www.w3.org/2000/svg"
 width="291.000000pt" height="291.000000pt" viewBox="0 0 291.000000 291.000000"
 preserveAspectRatio="xMidYMid meet">
<metadata>
Created by potrace 1.11, written by Peter Selinger 2001-2013
</metadata>
<g transform="translate(0.000000,291.000000) scale(0.100000,-0.100000)"
fill="#000000" stroke="none">
<path d="M2417 2366 c-193 -65 -335 -259 -457 -624 -27 -79 -51 -146 -54 -149
-2 -3 -38 -6 -80 -7 -41 -1 -78 -5 -82 -9 -5 -4 27 -6 69 -5 84 2 98 -3 75
-29 -8 -10 -32 -54 -52 -98 -57 -119 -142 -260 -179 -295 -70 -65 -109 -27
-111 108 0 82 10 243 19 287 2 11 7 43 10 70 5 48 9 74 20 140 16 99 18 128 6
121 -16 -11 -39 -59 -46 -97 -18 -101 -82 -335 -97 -353 -4 -6 -8 -16 -8 -24
0 -8 -18 -52 -41 -98 -148 -299 -347 -225 -335 125 5 145 11 167 50 182 111
45 308 177 390 263 56 60 131 177 146 230 17 62 9 151 -16 177 -33 33 -95 32
-162 -1 -134 -67 -275 -254 -365 -480 -25 -63 -47 -124 -48 -134 -5 -24 -103
-59 -254 -92 -100 -21 -261 -25 -340 -6 -124 28 -220 94 -260 178 -19 40 -34
35 -55 -15 -9 -24 -9 -35 4 -59 40 -78 116 -138 217 -172 51 -18 87 -22 179
-22 160 0 228 13 463 89 17 5 18 1 10 -58 -4 -35 -8 -120 -8 -189 1 -109 4
-132 24 -178 13 -29 37 -64 54 -78 26 -22 38 -25 79 -22 102 10 201 134 316
398 9 19 10 7 4 -55 -18 -221 -1 -345 49 -345 68 0 148 96 271 325 26 50 48
87 48 83 0 -8 -103 -346 -144 -472 -61 -186 -126 -332 -175 -390 -69 -85 -152
-100 -248 -46 -30 17 -52 26 -48 20 10 -16 97 -58 138 -65 60 -12 101 2 156
51 94 84 163 255 390 964 l18 55 198 3 c190 2 225 8 225 34 0 6 -43 7 -112 4
-62 -4 -157 -9 -210 -11 l-97 -5 23 67 c143 414 305 628 514 677 66 15 130 15
173 -2 31 -12 77 -65 85 -98 39 -153 -225 -495 -415 -538 -52 -12 -64 -31 -21
-32 48 -1 142 58 225 141 170 170 253 352 213 466 -37 106 -186 147 -341 95z
m-831 -159 c35 -31 44 -112 19 -172 -23 -53 -146 -173 -242 -236 -87 -57 -242
-134 -251 -125 -11 11 59 200 104 284 80 145 226 272 316 272 15 0 39 -10 54
-23z"/>
</g>
</svg>
